<svg width="27" height="27" viewBox="0 0 27 27" fill="none" xmlns="http://www.w3.org/2000/svg">
<g clip-path="url(#clip0_19_431)">
<path d="M27 13.5C27 6.04416 20.9558 0 13.5 0C6.04416 0 0 6.04416 0 13.5C0 20.9558 6.04416 27 13.5 27C20.9558 27 27 20.9558 27 13.5Z" fill="#1778F2"/>
<path d="M14.5765 21.12V13.8937H17.0021L17.3658 11.0774H14.5765V9.27934C14.5765 8.46403 14.8029 7.90836 15.9722 7.90836H17.4635V5.39023C16.7417 5.31386 16.0162 5.27687 15.2903 5.27942C13.1401 5.27942 11.6681 6.5918 11.6681 9.00207V11.0774H9.23633V13.8937H11.6681V21.12H14.5765Z" fill="#FDFDFD"/>
</g>
<defs>
<clipPath id="clip0_19_431">
<rect width="27" height="27" fill="white"/>
</clipPath>
</defs>
</svg>
