<svg width="24" height="30" viewBox="0 0 24 30" fill="none" xmlns="http://www.w3.org/2000/svg">
<path d="M16.3359 4.78468C16.8931 4.13114 17.3179 3.37203 17.586 2.55094C17.8541 1.72984 17.9602 0.862934 17.8982 0C16.1876 0.140521 14.5997 0.95927 13.4766 2.27985C12.9388 2.91277 12.5312 3.64908 12.2781 4.44517C12.0249 5.24126 11.9313 6.08096 12.0027 6.91454C12.8372 6.92162 13.662 6.7332 14.4134 6.36386C15.1648 5.99453 15.8226 5.4542 16.3359 4.78468ZM20.05 15.9439C20.0599 14.7946 20.3574 13.6668 20.9144 12.667C21.4714 11.6671 22.2696 10.8282 23.2336 10.2293C22.6252 9.33724 21.821 8.60168 20.8846 8.08097C19.9483 7.56027 18.9056 7.26875 17.8392 7.22952C15.54 6.98954 13.4176 8.59443 12.1943 8.59443C10.971 8.59443 9.24661 7.25952 7.33058 7.28952C6.07798 7.33151 4.85746 7.70316 3.78807 8.36822C2.71867 9.03329 1.8369 9.96906 1.22878 11.0843C-1.36523 15.674 0.565538 22.4985 3.15954 26.2033C4.33863 28.0181 5.8125 30.073 7.758 29.998C9.7035 29.923 10.3373 28.7681 12.5923 28.7681C14.8473 28.7681 15.54 29.998 17.456 29.953C19.3721 29.908 20.728 28.0931 21.9661 26.2783C22.8431 24.9606 23.5282 23.5208 24 22.0035C22.8319 21.4966 21.8354 20.6526 21.1334 19.5757C20.4314 18.4988 20.0548 17.2362 20.05 15.9439Z" fill="black"/>
</svg>
